<?xml version="1.0" encoding="utf-8"?>
<!-- Generator: Adobe Illustrator 23.0.1, SVG Export Plug-In . SVG Version: 6.00 Build 0)  -->
<svg version="1.1" id="Layer_1" xmlns="http://www.w3.org/2000/svg" xmlns:xlink="http://www.w3.org/1999/xlink" x="0px" y="0px"
	 viewBox="0 0 2000 2000" style="enable-background:new 0 0 2000 2000;" xml:space="preserve" class='western-divider'>
<style type="text/css">
	.st0{fill:#19259b;}
</style>
<g>
	<path class="st0" d="M1433.4,935.1c-10.8-5.7-24.5-2.5-34.5,4.5c-10,7-17.1,17.3-24.4,27.2c-86.7,117.2-226,193.9-371.4,204.3
		c181.4,32.5,304.5-77,436.9-205.3C1448.8,957.4,1444.2,940.8,1433.4,935.1z"/>
	<path class="st0" d="M1949.9,786.1c-63.7-13.5-132.7-0.1-186.6,36.3c-47.8,32.3-82.4,80.2-121,123.1
		c-110.7,123-261.9,208.8-424.2,240.7c138.5-6.3,274.5-60.1,379.8-150.3c41.4-35.4,78-76.2,120.3-110.5
		c42.2-34.4,91.8-62.8,146.1-67.5c24.6-2.1,50.7,0.3,72.4-11.3C1958.4,835,1969.8,800.8,1949.9,786.1z"/>
	<path class="st0" d="M1604.2,921.7c19.7-22.1,38.4-51.3,34.2-80.6c-25.5-7.6-53.4,4.7-72.4,23.2c-19,18.6-31.4,42.7-45.2,65.5
		c-78.7,129.7-215.8,222.2-365.3,247.4C1334.6,1147.9,1482.3,1057.9,1604.2,921.7z"/>
	<path class="st0" d="M1155.5,1177.1c-5.7,0.9-11.5,1.8-17.3,2.6C1144,1179,1149.7,1178.1,1155.5,1177.1z"/>
	<path class="st0" d="M1867.3,1028c-46.5-43.9-121.7-38.7-175.6-14.2c-36.5,16.6-68.8,41.1-100.1,64.8
		c-16.1,12.2-32.8,24.8-49.7,36.2c-94.3,63-208.5,92.9-321.5,84.1c-3.3-0.2-6.2,2.2-6.4,5.5c-0.3,3.3,2.2,6.2,5.5,6.4
		c115.7,9,232.6-21.6,329.1-86.1c17.2-11.5,34-24.3,50.3-36.6c30.7-23.3,62.5-47.4,97.8-63.5c50.3-22.9,120-28.1,162.4,12
		c29.1,27.5,39.1,74.4,23.7,111.4c-15.4,37-55.7,62.9-95.8,61.5c-30.1-1-56.9-16.8-68.4-40.2c-12.3-25-3-58.4,19.5-70.1
		c11.4-5.9,26.9-5.1,39.6,2.3c11.3,6.5,18.1,16.6,18.5,27.7c0.1,3.3,2.9,5.8,6.2,5.7c3.3-0.1,5.9-2.9,5.7-6.2
		c-0.6-15.2-9.5-28.9-24.5-37.5c-16.4-9.5-35.9-10.4-51.1-2.5c-28.4,14.8-39.9,55-24.7,86c13.4,27.3,44.4,45.7,78.8,46.9
		c1.2,0,2.4,0.1,3.6,0.1c44.3,0,86.6-27.9,103.7-68.9C1911.3,1110.6,1900.5,1059.3,1867.3,1028z"/>
	<path class="st0" d="M626.2,966.8c-7.3-9.8-14.4-20.1-24.4-27.2c-10-7-23.7-10.2-34.5-4.5c-10.8,5.7-15.4,22.3-6.6,30.8
		c132.4,128.2,255.5,237.8,436.9,205.3C852.3,1160.7,712.9,1084,626.2,966.8z"/>
	<path class="st0" d="M282.7,925.5c42.2,34.4,78.9,75.1,120.3,110.5c105.3,90.2,241.2,144,379.8,150.3
		c-162.3-31.9-313.6-117.8-424.2-240.7c-38.6-42.9-73.1-90.8-121-123.1c-54-36.5-122.9-49.9-186.6-36.3
		C31,800.8,42.4,835,64.2,846.7c21.7,11.6,47.9,9.2,72.4,11.3C190.8,862.7,240.4,891.1,282.7,925.5z"/>
	<path class="st0" d="M845.3,1177.1c5.7,1,11.5,1.8,17.3,2.6C856.8,1179,851,1178.1,845.3,1177.1z"/>
	<path class="st0" d="M480,929.7c-13.8-22.7-26.1-46.9-45.2-65.5c-19-18.6-46.9-30.8-72.4-23.2c-4.2,29.3,14.5,58.5,34.2,80.6
		c121.9,136.3,269.7,226.3,448.7,255.5C695.8,1152,558.7,1059.4,480,929.7z"/>
	<path class="st0" d="M780.4,1198.9c-113,8.8-227.2-21.1-321.5-84.1c-16.9-11.3-33.6-23.9-49.7-36.2
		c-31.3-23.7-63.6-48.2-100.1-64.8c-50-22.8-125.9-32.7-175.6,14.2c-33.2,31.3-44,82.6-26.5,124.7c17.1,41,59.4,68.9,103.7,68.9
		c1.2,0,2.4,0,3.6-0.1c34.4-1.2,65.3-19.6,78.8-46.9c15.2-31,3.7-71.2-24.7-86c-15.1-7.9-34.7-7-51.1,2.5
		c-14.9,8.6-23.8,22.3-24.5,37.5c-0.1,3.3,2.4,6.1,5.7,6.2c3.3,0.1,6.1-2.4,6.2-5.7c0.4-11,7.2-21.1,18.5-27.7
		c12.7-7.3,28.2-8.2,39.5-2.3c22.5,11.7,31.7,45.2,19.5,70.1c-11.5,23.4-38.4,39.2-68.4,40.2c-39.9,1.3-80.4-24.5-95.8-61.5
		c-15.4-37-5.5-83.8,23.7-111.4c42.4-40.1,112.2-34.9,162.4-12c35.3,16.1,67.1,40.2,97.8,63.5c16.2,12.3,33,25,50.3,36.6
		c96.5,64.5,213.4,95,329.1,86.1c3.3-0.3,5.8-3.1,5.5-6.4C786.5,1201.1,783.6,1198.7,780.4,1198.9z"/>
</g>
</svg>
