<?xml version="1.0" encoding="utf-8"?>
<!-- Generator: Adobe Illustrator 23.0.1, SVG Export Plug-In . SVG Version: 6.00 Build 0)  -->
<svg version="1.1" id="Layer_1" xmlns="http://www.w3.org/2000/svg" xmlns:xlink="http://www.w3.org/1999/xlink" x="0px" y="0px"
	 viewBox="0 0 2000 2000" style="enable-background:new 0 0 2000 2000;" xml:space="preserve">
<style type="text/css">
	.st0{fill:#19259b;}
</style>
<g>
	<path class="st0" d="M383.5,1385.2c2.8-10.7,5.3-20.6,7.5-29.1c2.2-8.6,4-15.8,5.2-20.8c1.2-5.1,1.8-8,1.8-8s-6.1,10.3-13.1,26.7
		c-3.6,8.2-7.3,17.9-10.8,28.4c-1.7,5.3-3.6,10.7-5.1,16.4c-1.5,5.6-3.1,11.4-4.6,17.1c-1.3,5.8-2.6,11.6-3.8,17.3
		c-1.3,5.7-2.1,11.4-3,16.9c-1.7,11-2.9,21.3-3.5,30.2c-1.4,17.8-0.8,29.7-0.8,29.7s0.7-2.9,2.1-7.9c1.2-5,2.9-12.2,5-20.8
		c2-8.6,4.3-18.6,6.8-29.3c2.6-10.7,5.3-22.1,8.1-33.4C378,1407.2,380.8,1395.9,383.5,1385.2z"/>
	<path class="st0" d="M243.2,1284.8c-2.4-1.3-5.5-0.4-6.8,2c-34.3,63.1-51.3,134.3-49.1,206.1c0.1,2.7,2.3,4.9,5,4.9
		c0.1,0,0.1,0,0.2,0c2.8-0.1,4.9-2.4,4.9-5.2c-2.2-70,14.4-139.5,47.9-201C246.5,1289.2,245.6,1286.2,243.2,1284.8z"/>
	<path class="st0" d="M280.7,1161.9c-2.2-1.7-5.3-1.4-7.1,0.7c-74.7,92.5-121.5,208.7-131.7,327.2c-0.2,2.8,1.8,5.2,4.6,5.4
		c0.1,0,0.3,0,0.4,0c2.6,0,4.8-2,5-4.6c10-116.5,56-230.8,129.5-321.7C283.1,1166.8,282.8,1163.7,280.7,1161.9z"/>
	<path class="st0" d="M380.2,1290.6c-2.6-1-5.5,0.4-6.4,3c-25.3,68.5-39.2,140.2-41.3,213.2c-0.1,2.8,2.1,5.1,4.9,5.2
		c0,0,0.1,0,0.1,0c2.7,0,4.9-2.2,5-4.9c2-71.9,15.7-142.5,40.7-210C384.2,1294.4,382.8,1291.5,380.2,1290.6z"/>
	<path class="st0" d="M347.7,1267.9c1-2.6-0.4-5.5-3-6.5c-2.6-1-5.5,0.4-6.5,3c-30.9,83.4-45.3,174.4-41.4,263.2
		c0.1,2.7,2.3,4.8,5,4.8c0.1,0,0.1,0,0.2,0c2.8-0.1,4.9-2.5,4.8-5.2C303.2,1439.7,317.3,1350.1,347.7,1267.9z"/>
	<path class="st0" d="M282.9,1381.7c-2.7-0.7-5.4,1-6.1,3.7c-9.7,38.8-15.6,78.8-17.7,118.7c-0.1,2.8,2,5.1,4.8,5.3
		c0.1,0,0.2,0,0.3,0c2.7,0,4.9-2.1,5-4.8c2-39.3,7.8-78.6,17.4-116.8C287.3,1385.1,285.6,1382.4,282.9,1381.7z"/>
	<path class="st0" d="M417.5,1536.7c-2.7-0.5-5.4,1.2-5.9,3.9c-21.4,105.6-23.5,213.1-6.3,319.4c0.4,2.5,2.5,4.2,4.9,4.2
		c0.3,0,0.5,0,0.8-0.1c2.7-0.4,4.6-3,4.2-5.8c-17-105.2-14.9-211.4,6.3-315.8C422,1539.9,420.2,1537.3,417.5,1536.7z"/>
	<path class="st0" d="M416.9,1423.3c0.7-2.7-0.8-5.4-3.5-6.2c-2.7-0.7-5.4,0.8-6.2,3.5C371,1550,359.4,1683.3,372.7,1817
		c0.3,2.6,2.4,4.5,5,4.5c0.2,0,0.3,0,0.5,0c2.8-0.3,4.8-2.7,4.5-5.5C369.5,1683.6,381,1551.5,416.9,1423.3z"/>
	<path class="st0" d="M1504.8,329.4c-0.1-2.8-2.4-5.1-5.2-4.9c-73,2.1-144.7,16-213.2,41.3c-2.6,1-3.9,3.9-3,6.4
		c0.7,2,2.7,3.3,4.7,3.3c0.6,0,1.2-0.1,1.7-0.3c67.5-24.9,138.1-38.6,210-40.7C1502.7,334.4,1504.8,332.1,1504.8,329.4z"/>
	<path class="st0" d="M1969.1,436.3c-47-58.3-116.6-98-190.7-108.7c-51.5-7.5-92.8-10.9-130.1-10.9c-34.1,0-65.4,2.9-94.7,8.8
		c10.4-18.5,13.3-41.2,6-61.6c-8.9-24.8-28.4-43-51.2-48.9c13.9-23.4,16.3-59.9,8.9-83.2c-5.5-15.7-20.3-34.5-59.7-34.5
		c-62.7,0-161.7,46.3-233.8,85.2c-37.6,20.3-74.1,43.5-109.4,66c-44.8,28.5-91.1,58-139.4,81.2c-85.7,41.1-183.6,62.8-283.3,62.8
		c-124.3,0-247.4-33.9-350.8-95c47.4,16.9,100,28.4,157.3,34.5C555.6,338,631.6,345,708.8,345c19.1,0,37.9-0.4,55.9-1.3
		c30.2-1.4,64.4-12.8,96.2-32c30.5-18.4,52.6-59.8,35.3-94.7c-0.3-0.7-0.8-1.4-1.3-2c-8.5-10.7-17.9-15.9-28.8-15.9
		c-5.5,0-10.4,1.3-14.7,2.5c-0.4,0.1-0.8,0.2-1.2,0.3c-3.2-19.2-21.1-32.9-39.8-37c-10.7-2.3-22.7-1.9-33.9,0.3
		c5-12.2,7-25.3,5.5-37.6c-2.5-20.3-12-40.5-27.5-58.3c-25.1-28.9-61.5-46.8-99.7-49c-38-2.2-76.7,11.6-104.5,37.1l-4.9,4.3
		c-0.8,0.7-1.4,1.5-2,2.3c-15.1,23.6-16.2,54.6-2.7,79.2c2.3,4.1,6.9,6.4,11.5,5.6c4.6-0.8,8.3-4.4,9-9.1
		c4.1-24.6,22.4-40.5,45-38.6c25.4,2.2,48.1,27.9,49.5,56.2c1.4,26.9-13.6,54.9-39.1,73.1c-33.2,23.7-76.5,28.4-118,31
		c-12.7,0.8-25.1,1.8-37.3,2.8c-26.2,2.1-50.9,4.1-74.9,4.1c-42.1,0-74.1-6.3-103.7-20.4c-9.4-5-18.7-10.4-27.6-16
		c-5.1-3.2-11.8-1.8-15.1,3.3c0,0.1-0.1,0.1-0.1,0.2c-0.2,0.1-0.3,0.3-0.5,0.4c-4.1,3.7-4.9,9.8-1.9,14.4c0.7,1,1.4,2,2.1,3.1
		c0,0,0,0,0,0c0.2,1.6,0.7,3.3,1.6,4.7c5.6,8.9,11,18.1,16,27.6c26.3,55.1,21.7,112.3,16.4,178.6c-1,12.2-2,24.6-2.8,37.3
		c-2.7,41.5-7.3,84.8-31.1,118c-18.1,25.2-46.2,40.5-73.1,39.1c-28.3-1.4-54-24.1-56.2-49.5c-1.9-22.3,13.9-40.8,38.6-45
		c4.6-0.8,8.3-4.4,9.1-9.1c0.8-4.6-1.4-9.3-5.6-11.5c-11.1-6.1-24-9.4-37.2-9.4c-15.2,0-29.7,4.2-41.9,12.1c-0.9,0.6-1.6,1.2-2.3,2
		l-4.2,4.8c-25.8,28.3-39.4,66.4-37.2,104.7c2.2,38.2,20.1,74.6,49,99.7c17.8,15.5,38,25,58.3,27.5c12.4,1.5,25.5-0.5,37.7-5.5
		c-2.2,11.2-2.8,22.5-0.4,33.9c4.6,21.1,19.3,36.6,37,39.7c-0.1,0.4-0.2,0.9-0.4,1.3c-2.9,10.8-7.3,27,13.4,43.5
		c0.6,0.5,1.3,0.9,2,1.3c8.1,4,16.8,6,26.1,6c26.1,0,53.7-16.6,68.6-41.3c20.1-33.3,25.8-71.1,27-96.9c4.4-92.8,2.1-182.3-6.8-265.9
		c-5.4-51.1-15.2-98.5-29.2-141.7c0,0,0,0,0,0c0,0,0,0,0,0c105.7,187.3,118.6,428.5,25.5,622.7c-23.2,48.4-52.7,94.7-81.2,139.4
		c-22.5,35.3-45.8,71.8-66,109.4c-48.5,90-101.8,208.9-80.1,264.6c5.5,14.3,15.5,24,29.8,29c22.6,7.2,59.5,5,83-9
		c6,22.5,24,42.3,48.8,51.2c19.7,7.1,43.3,4.2,61.7-6.3c-15.4,76.6-8,155.8,2,225.1c10.7,74.2,50.4,143.7,108.7,190.7
		c2,1.6,4.5,2.4,6.9,2.4c1.9,0,3.9-0.5,5.6-1.5c4-2.3,6.1-6.9,5.3-11.5c-38.9-217.6-14.8-424.7,16.9-616l5.7-33.9
		c32.8-196.2,66.6-399.1,45.6-599.6c-10.9-103.5-32.9-187.4-70.4-259c69.4,34.4,150.2,54.9,249,65.3c41.4,4.3,85.2,6.5,130.1,6.5
		c157.2,0,316-26.5,469.5-52.2l33.9-5.6c153.7-25.5,271.3-36.9,381.3-36.9c82.7,0,159.5,6.5,234.7,20c4.5,0.8,9.1-1.3,11.5-5.3
		C1972.3,445,1972,439.9,1969.1,436.3z M553.5,103.4c0-0.2,0-0.3,0-0.5c0,0,0,0,0,0c0,0.1,0.1,0.2,0.1,0.3
		C553.6,103.3,553.6,103.3,553.5,103.4z M442.1,288c6.9-0.5,14-1.1,21.1-1.6c12.1-1,24.4-2,37-2.8c42.7-2.8,91.5-8,129.4-35.1
		c31.6-22.6,50.1-57.9,48.4-92.3c-2-39.3-33.3-73.9-69.7-77.1c-0.6,0-1.2-0.1-1.7-0.1c8.9-1.8,18-2,26.9-0.6
		c26,4.1,49.6,22.4,60.1,46.5c6.7,15.5,8.4,33,10,49.8c0.2,2.6,2.4,4.5,5,4.5c0.2,0,0.3,0,0.5,0c2.8-0.3,4.8-2.7,4.5-5.5
		c-1.7-17.6-3.4-35.9-10.7-52.9C691,93.7,664.4,73.1,635,68.5c-0.2,0-0.5-0.1-0.7-0.1c23-0.4,45.8,6.1,65,18.9
		c16.1,10.7,33.4,30.9,29.5,52.8c-0.5,2.7,1.3,5.3,4.1,5.8c0.3,0.1,0.6,0.1,0.9,0.1c2.4,0,4.5-1.7,4.9-4.1
		c4.7-26.7-15.3-50.6-33.9-62.9c-23.5-15.6-52-22.8-80.1-20c-25.2,2.4-49.2,12.7-68.4,29.1c1.2-3.7,2.9-7.3,4.9-10.7l3.8-3.4
		c23.6-21.6,56.3-33.3,88.5-31.4c31.8,1.8,63.3,17.3,84.3,41.4c8.8,10.1,19.8,26.4,22.3,46.5c1.9,15.3-4.6,33.4-16.5,46
		c-3.5,3.7-4,9.3-1.3,13.6c2.8,4.3,8.1,6.1,12.9,4.5c9.1-3.1,18.5-6.2,27.7-7.8l-40.3,31c-2.2,1.7-2.6,4.8-0.9,7c1,1.3,2.5,2,4,2
		c1.1,0,2.1-0.3,3.1-1l48.3-37.2c0.9-0.7,1.5-1.7,1.8-2.8c0,0,0,0,0,0c2.4,0.2,4.7,0.5,6.9,1c6.9,1.5,13.5,5.1,17.8,9.9l-65.7,42.2
		c-2.3,1.5-3,4.6-1.5,6.9c1,1.5,2.6,2.3,4.2,2.3c0.9,0,1.9-0.3,2.7-0.8l65-41.7c0.5,2.1,0.5,4.3,0,6.6c-0.6,2.9,0,6,1.8,8.5
		c1.7,2.5,4.3,4.1,7.3,4.6c7.3,1.2,14.2-0.5,19.9-2.1c3.3-0.9,6.4-1.7,9-1.7c0.7,0,1.7,0,3,0.5c0,0,0,0,0,0
		c-35.4,26-76.8,44.4-119.8,53.2c-2.7,0.6-4.5,3.2-3.9,5.9c0.5,2.4,2.6,4,4.9,4c0.3,0,0.7,0,1-0.1c45.2-9.3,88.7-28.7,125.7-56.4
		c2.8,6.4,3.6,13.3,2.7,20.2c0,0,0,0,0,0c-10,21-32.1,35.7-55.4,36.7c-2.8,0.1-4.9,2.5-4.8,5.2c0.1,2.7,2.3,4.8,5,4.8
		c0.1,0,0.1,0,0.2,0c12.9-0.5,25.4-4.7,36.3-11.5c-3.6,3.5-7.5,6.5-11.6,9c-28.8,17.4-59.3,27.6-85.9,28.9
		c-17.6,0.8-36.1,1.2-54.8,1.2c-76.3,0-151.4-6.9-208.4-12.9c-13.1-1.4-26-3.1-38.6-5c0,0-0.1,0-0.1,0c34.1,2.7,68.2,4,102.4,4
		c40.6,0,81.3-1.9,121.7-5.7c2.8-0.3,4.8-2.7,4.5-5.5c-0.3-2.8-2.7-4.8-5.5-4.5c-53.6,5.1-107.6,6.7-161.5,5
		c36.8-2.6,73.3-9.8,107.8-24.9c2.5-1.1,3.7-4.1,2.6-6.6c-1.1-2.5-4.1-3.7-6.6-2.6C568.9,289.6,504.3,291.8,442.1,288
		C442.1,288,442.1,288,442.1,288z M112.7,556.4c-0.1,0-0.1,0.1-0.2,0.1c-0.1,0-0.2-0.1-0.3-0.1C112.4,556.4,112.6,556.4,112.7,556.4
		z M312.6,688.6c7-74.4,7.5-149.4,1.7-223.9c2,12.6,3.7,25.4,5.1,38.6c8.7,82.5,11,170.9,6.7,262.6c-1.1,23.2-6.1,57.1-23.8,86.5
		c-2.5,4.2-5.6,8.1-9.1,11.7c6.9-10.9,11-23.5,11.6-36.4c0.1-2.8-2-5.1-4.8-5.2c-2.8,0.1-5.1,2-5.2,4.8
		c-0.9,23.2-15.6,45.3-36.6,55.3c-1.9,0.2-3.8,0.4-5.6,0.4c-5.2,0-10.2-1-14.7-3c27.6-37,47.1-80.5,56.4-125.7
		c0.6-2.7-1.2-5.4-3.9-5.9c-2.7-0.6-5.4,1.2-5.9,3.9c-8.8,43-27.1,84.4-53.1,119.8c-1-3.3-0.1-6.8,1.3-11.9
		c1.5-5.5,3.3-12.3,2.1-19.9c-0.5-3-2.2-5.6-4.6-7.3c-2.5-1.7-5.5-2.3-8.5-1.8c-2.3,0.5-4.5,0.4-6.6,0l41.8-65
		c1.5-2.3,0.8-5.4-1.5-6.9c-2.3-1.5-5.4-0.8-6.9,1.5l-42.2,65.8c-4.9-4.4-8.5-11.1-9.9-17.8c-0.5-2.3-0.8-4.6-0.9-6.9
		c1.1-0.3,2.1-0.9,2.8-1.8l37.2-48.3c1.7-2.2,1.3-5.3-0.9-7c-2.2-1.7-5.3-1.3-7,0.9l-31,40.3c1.6-9,4.5-18.3,7.8-27.7
		c1.7-4.8-0.2-10.1-4.5-12.9c-4.3-2.8-9.9-2.2-13.6,1.3c-12.4,11.7-30.4,18.4-46,16.5c-20.1-2.5-36.4-13.5-46.5-22.3
		c-24.1-20.9-39.6-52.4-41.4-84.3c-1.8-31.8,9.9-64.9,31.6-88.6l3.3-3.7c3.3-2,6.9-3.6,10.7-4.8c-16.4,19.2-26.7,43.1-29.1,68.3
		c-2.7,28.1,4.4,56.6,20,80.1c11.1,16.7,31.5,34.6,54.9,34.6c2.6,0,5.3-0.2,8-0.7c2.7-0.5,4.6-3.1,4.1-5.8c-0.5-2.7-3.1-4.6-5.8-4.1
		c-21.9,3.9-42.1-13.5-52.8-29.5c-12.8-19.2-19.4-42.1-18.9-65.1c0,0.2,0.1,0.5,0.1,0.7c4.6,29.4,25.2,56,52.5,67.8
		c17,7.3,35.2,9.1,52.9,10.7c0.2,0,0.3,0,0.5,0c2.6,0,4.7-1.9,5-4.5c0.3-2.8-1.8-5.2-4.5-5.5c-16.9-1.6-34.3-3.2-49.8-10
		c-24.2-10.5-42.5-34.1-46.6-60.1c-1.4-8.9-1.1-18,0.6-26.9c0,0.6,0.1,1.1,0.1,1.7c3.2,36.5,37.7,67.7,77.1,69.7
		c1.5,0.1,3,0.1,4.5,0.1c0,0,0,0,0,0c32.8,0,66.4-18.6,87.8-48.5C285,594.5,290.2,545.7,293,503c0.8-12.6,1.8-24.9,2.8-37
		c0.6-7.1,1.1-14.1,1.6-21.1c3.8,62.2,1.6,126.8-23.8,185.1c-1.1,2.5,0.1,5.5,2.6,6.6c0.7,0.3,1.3,0.4,2,0.4c1.9,0,3.8-1.1,4.6-3
		c15.1-34.6,22.2-71,24.9-107.8c1.7,53.9,0,107.8-5,161.5c-0.3,2.8,1.8,5.2,4.5,5.5c0.2,0,0.3,0,0.5,0
		C310.2,693.2,312.4,691.2,312.6,688.6z M508.4,718.4c20.7,197.5-12.9,398.9-45.4,593.7l-5.7,33.9c-29.1,175.3-54,381.5-22.1,592.1
		c-41.4-42-69.2-97.4-77.7-155.8c-11.5-79.6-19.6-172.5,8.2-257.4c1.8-5.6-1.1-11.7-6.6-13.8c-1.3-0.5-2.6-0.7-3.9-0.7
		c-4.3,0-8.4,2.5-10.2,6.7c-7.9,18.5-28.3,31.4-49.7,31.4c-5.6,0-11-0.9-15.9-2.7c-24.7-8.9-40-32.2-35.7-54.3
		c0.6-1.7,1-3.5,1.3-5.3c0.8-5.1-2-10-6.7-12h0c0,0,0,0,0,0c1.1-2.8,4.4-11,8.2-22.3c2.4-7,5.1-15.2,7.9-24.1
		c2.9-8.8,5.7-18.2,8.6-27.6c2.8-9.4,5.7-18.8,8.2-27.7c2.6-8.9,4.9-17.2,6.8-24.4c3.9-14.3,5.9-24.2,5.9-24.2s-5.4,8.5-11.8,22
		c-3.3,6.7-6.7,14.8-10.1,23.5c-1.6,4.4-3.5,8.8-4.9,13.5c-1.5,4.7-3.1,9.4-4.6,14.1c-2.8,9.6-5.4,19.2-7.4,28.3
		c-2,9.1-3.6,17.7-4.7,25.1c-1.8,11.7-2.3,20.5-2.4,23.6c-0.4-0.2-0.9-0.3-1.4-0.4c-5.7-1.3-11.4,2.1-13.1,7.7
		c-0.4,1.4-0.8,2.8-1.1,4.3c-4.7,11.9-27.3,20.8-53,20.8c-8.5,0-16.5-1.1-22.3-2.9c-7.8-2.7-13-7.8-16.1-16
		c-14.3-36.8,14.5-126.5,79-246.1c19.9-36.9,42.9-73.1,65.2-108c28.9-45.3,58.7-92.2,82.5-141.8c90.7-189.1,84-421.4-8.5-609.5
		c19.2,17.2,39.4,32.6,60.5,46.4c70.3,137.3,84.4,302.2,33.4,449.4c-0.9,2.6,0.5,5.5,3.1,6.4c0.5,0.2,1.1,0.3,1.6,0.3
		c2.1,0,4-1.3,4.7-3.4c48.1-138.8,39.3-293.1-19.2-426.2C473.8,526.8,497.2,611.8,508.4,718.4z M1723.9,412.1
		c-111.3,0-230,11.5-385,37.2L1305,455c-152.7,25.5-310.5,51.9-465.9,51.9c-44.2,0-87.2-2.2-127.8-6.4c-3.7-0.4-7.4-0.8-11-1.2
		c14.5,0.9,29,1.3,43.5,1.3c58.1,0,116.2-7,172.9-21.3c2.7-0.7,4.3-3.4,3.7-6.1c-0.7-2.7-3.4-4.3-6.1-3.6
		c-150.3,37.7-311.2,24.2-453.1-38c-0.8-0.4-1.7-0.5-2.6-0.4c-6.8-3.6-13.4-7.3-20-11.2c-0.1-0.1-0.2-0.3-0.3-0.4
		c80.8,35.9,172.8,54.3,272.4,54.3c54.2,0,110.7-5.5,168.9-16.5c2.7-0.5,4.5-3.1,4-5.9c-0.5-2.7-3.2-4.5-5.9-4
		c-169.3,32.1-324.4,16.4-450.1-43.9c-7.6-3.7-15.1-7.5-22.5-11.5h0c-1.9-1-3.9-2.1-5.8-3.2c-6.3-3.5-12.5-7.1-18.6-10.8
		c-0.7-0.4-1.5-0.9-2.2-1.3c-1.5-0.9-3-1.8-4.5-2.8c0,0,0,0,0,0c-12.2-7.7-24.1-15.8-35.6-24.5c7.9,5,16,9.8,24.1,14.5c0,0,0,0,0,0
		c3.1,1.8,6.3,3.5,9.4,5.3c1.5,0.8,3.1,1.7,4.6,2.5c5.9,3.2,12,6.3,18,9.4c1.1,0.5,2.1,1.1,3.2,1.6c7.5,3.7,15,7.2,22.6,10.6
		c85.3,38.1,178.4,57.9,271.8,57.9c55.8,0,111.8-7.1,166.1-21.5c2.7-0.7,4.3-3.5,3.6-6.1c-0.7-2.7-3.5-4.3-6.1-3.6
		c-149.2,39.6-310.4,22.9-448.6-43.9c-7.9-3.8-15.8-7.8-23.6-12h0c-1-0.5-1.9-1-2.9-1.6h0c-5.8-3.2-11.6-6.4-17.3-9.8
		c-5.8-3.4-11.6-6.8-17.3-10.4c-5.5-3.5-11-7-16.5-10.7l0,0c-6.2-6.6-12.3-13.4-18.4-20.5c-3.7-4.3-7.4-8.7-11-13.2
		c12.6,8.4,25.5,16.3,38.7,23.8c1.1,0.6,2.3,1.3,3.4,1.9c6.5,3.7,13.1,7.2,19.7,10.7c5,2.6,10,5.1,15.1,7.6
		c96.1,46.9,205,72.6,314.7,72.6c102.9,0,204.2-22.5,292.8-65c49.5-23.8,96.4-53.6,141.7-82.5c35-22.3,71.1-45.3,108-65.2
		c57.2-30.8,162.2-82.5,223.3-82.5c32,0,37.1,14.8,38.8,19.4c7.9,25-0.1,68.7-17.8,75.6c-1.4,0.3-2.8,0.7-4.3,1.1
		c-5.6,1.7-8.9,7.4-7.6,13.1c0.1,0.5,0.3,1,0.4,1.4c-3.1,0.1-11.9,0.6-23.6,2.4c-7.4,1-16,2.6-25.1,4.7c-9.1,2-18.7,4.7-28.3,7.4
		c-4.7,1.6-9.5,3.1-14.1,4.6c-4.7,1.5-9.1,3.3-13.5,5c-8.7,3.4-16.7,6.8-23.5,10.1c-13.5,6.4-22,11.8-22,11.8s9.9-2,24.2-5.9
		c7.2-1.9,15.5-4.2,24.4-6.8c8.9-2.5,18.3-5.5,27.8-8.2c9.4-3,18.8-5.8,27.6-8.6c8.8-2.8,17-5.5,24.1-7.9c11.2-3.8,19.5-7,22.3-8.2
		c1.9,4.7,6.8,7.5,12,6.7c1.8-0.3,3.6-0.7,5.3-1.3c22.1-4.3,45.7,11.5,54.3,35.7c8.9,24.7-4.6,55.4-28.7,65.7
		c-5.4,2.3-8.1,8.5-6,14.1c2.1,5.5,8.2,8.5,13.8,6.6c38.9-12.7,81.5-18.9,130.5-18.9c36.2,0,76.6,3.4,126.9,10.7
		c58.4,8.5,113.8,36.3,155.8,77.7C1864.5,417,1796.4,412.1,1723.9,412.1z"/>
	<path class="st0" d="M1349,383c8.5-2.2,18.5-4.8,29.1-7.5c10.7-2.7,22-5.5,33.4-8.4c11.4-2.7,22.8-5.5,33.4-8.1
		c10.7-2.5,20.7-4.8,29.3-6.8c8.6-2.1,15.8-3.8,20.8-5c5-1.3,7.9-2,7.9-2s-11.9-0.6-29.7,0.8c-8.9,0.6-19.2,1.8-30.2,3.5
		c-5.5,1-11.2,1.8-16.9,3c-5.7,1.3-11.5,2.5-17.3,3.8c-5.7,1.6-11.5,3.1-17.1,4.6c-5.7,1.5-11.1,3.4-16.4,5.1
		c-10.5,3.6-20.3,7.3-28.4,10.8c-16.4,7-26.7,13.1-26.7,13.1s2.9-0.7,8-1.8C1333.2,386.9,1340.4,385.1,1349,383z"/>
	<path class="st0" d="M1486.2,204.1c-0.2-2.8-2.6-4.9-5.3-4.7c-100.5,6.5-198,39.3-282.1,94.8c-2.3,1.5-2.9,4.6-1.4,7
		c1,1.5,2.6,2.3,4.2,2.3c0.9,0,1.9-0.3,2.8-0.8c82.6-54.5,178.5-86.7,277.2-93.1C1484.3,209.3,1486.4,206.9,1486.2,204.1z"/>
	<path class="st0" d="M1279.7,228.3c-2.4,1.3-3.3,4.4-2,6.8c0.9,1.7,2.6,2.6,4.4,2.6c0.8,0,1.6-0.2,2.4-0.6
		c61.5-33.5,130.9-50,201-47.9c2.8,0,5.1-2.1,5.2-4.9c0.1-2.8-2.1-5.1-4.9-5.2C1414.1,177.1,1342.8,194,1279.7,228.3z"/>
	<path class="st0" d="M1488.2,138.4c-0.2-2.8-2.7-4.8-5.4-4.6c-118.5,10.2-234.7,57-327.1,131.8c-2.2,1.7-2.5,4.9-0.8,7
		c1,1.2,2.4,1.9,3.9,1.9c1.1,0,2.2-0.4,3.2-1.1c91-73.5,205.2-119.5,321.7-129.5C1486.4,143.6,1488.4,141.1,1488.2,138.4z"/>
	<path class="st0" d="M1520.1,298.9c2.8,0.2,5.1-2,5.2-4.8c0.1-2.8-2-5.1-4.8-5.2c-88.8-3.9-179.8,10.5-263.2,41.4
		c-2.6,1-3.9,3.9-3,6.5c0.8,2,2.7,3.3,4.7,3.3c0.6,0,1.2-0.1,1.8-0.3C1343,309.2,1432.6,295.2,1520.1,298.9z"/>
	<path class="st0" d="M1379.5,278.7c0.4,0,0.8,0,1.2-0.1c38.2-9.5,77.5-15.4,116.8-17.4c2.8-0.1,4.9-2.5,4.8-5.3
		c-0.1-2.8-2.5-4.8-5.3-4.8c-40,2-79.9,8-118.7,17.7c-2.7,0.7-4.3,3.4-3.7,6.1C1375.2,277.2,1377.3,278.7,1379.5,278.7z"/>
	<path class="st0" d="M1533.6,403.6c-2.7,0.5-4.5,3.2-3.9,5.9c0.5,2.4,2.6,4,4.9,4c0.3,0,0.7,0,1-0.1
		c104.4-21.1,210.7-23.3,315.8-6.3c2.7,0.4,5.3-1.4,5.8-4.2c0.4-2.7-1.4-5.3-4.2-5.8C1746.6,380,1639.1,382.2,1533.6,403.6z"/>
	<path class="st0" d="M1705.6,357.7c2.9-0.2,5-2.2,5.1-4.9c0-2.8-2.2-5.1-4.9-5.1c-128.2-1.9-255.1,17.6-376.8,58.4
		c-2.6,0.9-4,3.7-3.2,6.4c0.7,2.1,2.7,3.4,4.8,3.4c0.5,0,1.1-0.1,1.6-0.3C1452.7,375.1,1578.3,355.6,1705.6,357.7z"/>
	<path class="st0" d="M680.4,279.4c0.2,2.9,2.6,5.1,5.5,5.1c0.1,0,0.3,0,0.4,0c49.4-3.6,96.7-20.8,136.8-49.8c2.5-1.8,3-5.2,1.2-7.7
		c-1.8-2.5-5.2-3-7.7-1.2c-38.5,27.8-83.8,44.3-131.2,47.7C682.4,273.7,680.1,276.3,680.4,279.4z"/>
	<path class="st0" d="M640.5,265.9c0.3,0,0.6,0,0.9-0.1c37.4-6,71.6-27,93.8-57.7c1.8-2.5,1.2-5.9-1.2-7.7c-2.5-1.8-5.9-1.2-7.7,1.2
		c-20.5,28.3-52.1,47.7-86.6,53.2c-3,0.5-5.1,3.3-4.6,6.3C635.5,264,637.8,265.9,640.5,265.9z"/>
	<path class="st0" d="M288.7,683.2c-3-0.2-5.7,2.1-5.9,5.1c-3.4,47.3-19.9,92.7-47.7,131.2c-1.8,2.5-1.2,5.9,1.2,7.7
		c1,0.7,2.1,1,3.2,1c1.7,0,3.4-0.8,4.5-2.3c29-40.1,46.2-87.5,49.8-136.8C294.1,686.1,291.8,683.4,288.7,683.2z"/>
	<path class="st0" d="M270.7,637.9c-3-0.4-5.8,1.6-6.3,4.6c-5.5,34.5-24.9,66.1-53.2,86.6c-2.5,1.8-3,5.3-1.2,7.7
		c1.1,1.5,2.8,2.3,4.5,2.3c1.1,0,2.3-0.3,3.2-1c30.7-22.2,51.7-56.4,57.7-93.8C275.7,641.2,273.7,638.3,270.7,637.9z"/>
</g>
</svg>
